<?xml version="1.0" standalone="no"?><!DOCTYPE svg PUBLIC "-//W3C//DTD SVG 1.1//EN" "http://www.w3.org/Graphics/SVG/1.1/DTD/svg11.dtd"><svg class="icon" width="64px" height="64.00px" viewBox="0 0 1024 1024" version="1.1" xmlns="http://www.w3.org/2000/svg"><path d="M82.4 407.1h210v515.1h-210z" fill="#FFFFFF" /><path d="M81 399h142.3v487.1H81z" fill="#E87A66" /><path d="M223.3 399h53.4v487.1h-53.4z" fill="#65D5EF" /><path d="M942.7 528.3l-61.1 307.6c-8 40.4-45.5 69.8-89.1 69.8H303.3c-6 0-10.9-4.6-10.9-10.3V451.9c0-5.6 4.8-10.2 10.8-10.2h10.1c50.5 0 97.3-16.4 131.9-46.1 35.7-30.7 55.4-73.4 55.4-120.2V131.9c0-2.2 1.9-4 4.2-4 80.1 0 145.2 61.4 145.2 137v162.3c0 8 6.9 14.5 15.4 14.5h201.2c23.1 0 44.9 9.6 59.6 26.4s20.7 38.8 16.5 60.2z" fill="#FFFFFF" /><path d="M942.7 490.3l-61.1 307.6c-8 40.4-45.5 69.8-89.1 69.8H303.3c-6 0-10.9-4.6-10.9-10.3V413.9c0-5.6 4.8-10.2 10.8-10.2h10.1c50.5 0 97.3-16.4 131.9-46.1 35.7-30.7 55.4-73.4 55.4-120.2V94c0-2.2 1.9-4 4.2-4 80 0 145.2 61.4 145.2 137v162.3c0 8 6.9 14.5 15.4 14.5h201.2c23.1 0 44.9 9.6 59.6 26.4s20.7 38.7 16.5 60.1z" fill="#F7DF8A" /><path d="M936.1 434.5c-19.8-23.8-48.8-37.5-79.8-37.5h-178V247c0-92.9-75.6-168.6-168.6-168.6-18.5 0-33.5 15-33.5 33.5v145.7c0 79.5-64.5 139.5-150 139.5h-9.7c-6 0-11.7 1.3-16.8 3.7-6.9-10.3-18.6-17.1-31.9-17.1H102.3C81.2 383.7 64 400.9 64 422v485.2c0 21.1 17.2 38.3 38.3 38.3H268c15 0 28-8.6 34.3-21.2 4.5 1.8 9.4 2.7 14.5 2.7h468.6c56 0 104-39.9 114.4-94.9l58.6-312.4c5.5-30.3-2.6-61.4-22.3-85.2zM276.8 907.3c0 4.9-4 8.9-8.9 8.9H102.3c-4.9 0-8.9-4-8.9-8.9V422c0-4.9 4-8.9 8.9-8.9h106.2V697c0 8.1 6.6 14.7 14.7 14.7S238 705.2 238 697V413.2h30c4.9 0 8.9 4 8.9 8.9v485.2z m652.5-392.9l-58.6 312.4c-7.7 41.1-43.6 70.9-85.4 70.9H316.7c-5.8 0-10.5-4.7-10.5-10.5V436.9c0-5.7 4.6-10.3 10.3-10.3h9.7c48.4 0 93.3-16.6 126.4-46.9 34.2-31.2 53-74.6 53-122.1V111.9c0-2.2 1.8-4 4-4 76.7 0 139.1 62.4 139.1 139.1v164.8c0 8.1 6.6 14.7 14.7 14.7h192.7c22.2 0 43 9.8 57.1 26.8 14.4 17.1 20.1 39.4 16.1 61.1z" fill="#274359" /><path d="M223.3 745.5c-8.1 0-14.7 6.7-14.7 15v32c0 8.3 6.6 15 14.7 15s14.7-6.7 14.7-15v-32c0-8.3-6.6-15-14.7-15z" fill="#274359" /></svg>