<?xml version="1.0" standalone="no"?><!DOCTYPE svg PUBLIC "-//W3C//DTD SVG 1.1//EN" "http://www.w3.org/Graphics/SVG/1.1/DTD/svg11.dtd"><svg class="icon" width="64px" height="64.00px" viewBox="0 0 1024 1024" version="1.1" xmlns="http://www.w3.org/2000/svg"><path d="M204.3 711.9c7.7-9.5 25.4-11.4 35.4-3.6 9.5 7.7 11.4 25.4 3.6 35L167 836.8c-7.7 9.5-25.4 11.4-35.4 3.6-9.5-7.7-11.4-25.4-3.6-35l76.3-93.5z m68.6 61.3c7.7-9.5 25.4-11.4 35.4-3.6 9.5 7.7 11.4 25.4 3.6 35l-113.5 138c-7.7 9.5-25.4 11.4-35.4 3.6-9.5-7.7-11.4-25.4-3.6-35l113.5-138z m64.9 52.7c7.7-9.5 25.4-11.4 35.4-3.6 9.5 7.7 11.4 25.4 3.6 35L321.4 925c-7.7 9.5-25.4 11.4-35.4 3.6-9.5-7.7-11.4-25.4-3.6-35l55.4-67.7z m0 0M884.6 59.4c-18.2-4.1-326.9-62.2-534.5 197.5-65.8-5.4-150.8 5.9-213 94.9-62.2 89-25 215.2 10 238.4 35 23.2 43.6-7.3 43.6-7.3l46.8-37.2S228 656 241.1 666.5l87.6 71.3 87.6 71.3c16.3 13.2 119.4-20.4 119.4-20.4l-27.2 53.1s-28.2 14.5 1.8 44 161.7 40.4 236.6-38.1c74.9-78.1 69-163.5 50.9-226.6C1009 369.5 893.2 82.5 884.6 59.4zM673.9 428c-64.5 0-116.8-52.3-116.8-116.8s52.3-116.8 116.8-116.8 116.8 52.3 116.8 116.8S738.4 428 673.9 428z" fill="#318FF3" /></svg>