<?xml version="1.0" standalone="no"?><!DOCTYPE svg PUBLIC "-//W3C//DTD SVG 1.1//EN" "http://www.w3.org/Graphics/SVG/1.1/DTD/svg11.dtd"><svg class="icon" width="64px" height="64.00px" viewBox="0 0 1024 1024" version="1.1" xmlns="http://www.w3.org/2000/svg"><path d="M512 68.8c-185.6 0-337.6 150.4-337.6 337.6 0 185.6 150.4 337.6 337.6 337.6 185.6 0 337.6-150.4 337.6-337.6 0-185.6-152-337.6-337.6-337.6z m212.8 300.8l-91.2 89.6 22.4 126.4c3.2 16-14.4 28.8-28.8 20.8L512 547.2l-113.6 59.2c-14.4 8-32-4.8-28.8-20.8l22.4-126.4-91.2-89.6c-11.2-11.2-4.8-32 11.2-33.6l126.4-17.6 56-115.2c8-14.4 28.8-14.4 35.2 0l56 115.2 126.4 17.6c17.6 3.2 24 22.4 12.8 33.6z" fill="#318FF3" /><path d="M827.2 577.6c-56 102.4-160 174.4-281.6 185.6l112 193.6s60.8-65.6 115.2-131.2c91.2-20.8 176-35.2 176-35.2l-121.6-212.8zM196.8 577.6L75.2 790.4s84.8 14.4 176 35.2c60.8 65.6 115.2 131.2 115.2 131.2l112-193.6c-121.6-11.2-225.6-83.2-281.6-185.6z" fill="#318FF3" /><path d="M512 68.8c-185.6 0-337.6 150.4-337.6 337.6 0 185.6 150.4 337.6 337.6 337.6 185.6 0 337.6-150.4 337.6-337.6 0-185.6-152-337.6-337.6-337.6z m212.8 300.8l-91.2 89.6 22.4 126.4c3.2 16-14.4 28.8-28.8 20.8L512 547.2l-113.6 59.2c-14.4 8-32-4.8-28.8-20.8l22.4-126.4-91.2-89.6c-11.2-11.2-4.8-32 11.2-33.6l126.4-17.6 56-115.2c8-14.4 28.8-14.4 35.2 0l56 115.2 126.4 17.6c17.6 3.2 24 22.4 12.8 33.6z" fill="#318FF3" /></svg>