<?xml version="1.0" standalone="no"?><!DOCTYPE svg PUBLIC "-//W3C//DTD SVG 1.1//EN" "http://www.w3.org/Graphics/SVG/1.1/DTD/svg11.dtd"><svg class="icon" width="64px" height="62.47px" viewBox="0 0 1049 1024" version="1.1" xmlns="http://www.w3.org/2000/svg"><path d="M0 0h1048.97561v1024H0z" fill="#D8D8D8" fill-opacity="0" /><path d="M965.881756 197.332293c-28.672 1.498537-54.996293 20.055415-66.56 46.779317a80.09678 80.09678 0 0 0 10.614634 82.269658l-8.167024 34.816c-16.683707 71.180488-79.222634 121.306537-151.302244 121.306537-81.095805 0-148.529951-63.288195-154.998634-145.358049l-7.742439-98.52878c37.363512-25.225366 59.441951-72.004683 48.702439-122.88-9.216-43.682341-44.032-78.922927-87.139903-88.113952-74.002732-15.834537-139.288976 41.309659-139.288975 113.863805 0 40.535415 20.48 76.325463 51.499707 97.155122l-7.742439 98.528781c-6.493659 82.044878-73.927805 145.333073-155.02361 145.333073-71.979707 0-134.618537-50.250927-151.277268-121.306537l-8.167024-34.816c17.18322-21.778732 23.477073-52.398829 10.614634-82.269658-11.48878-26.723902-37.813073-45.380683-66.584976-46.779317-52.44878-2.697366-90.536585 43.882146-82.169756 93.034146a79.24761 79.24761 0 0 0 45.45561 59.092293L116.236488 849.170732h816.402732v-0.224781l69.656975-499.512195a78.798049 78.798049 0 0 0 45.45561-59.067317c8.691512-49.152-29.421268-95.731512-81.870049-93.034146z" fill="#F9C85D" /><path d="M805.613268 1024H243.362341C177.876293 1024 124.878049 968.129561 124.878049 899.121951h799.219512c0 69.00761-53.098146 124.878049-118.484293 124.878049z" fill="#83C6EF" /><path d="M0 299.707317a74.926829 74.926829 0 1 0 149.853659 0 74.926829 74.926829 0 0 0-149.853659 0z" fill="#F9C85D" /><path d="M965.881756 197.157463c-28.647024 1.498537-54.971317 20.055415-66.56 46.804293a80.121756 80.121756 0 0 0 10.614634 82.269659l-8.167024 34.816c-16.658732 71.180488-79.172683 121.306537-151.277268 121.306536-81.095805 0-148.504976-63.288195-154.973659-145.358049l-7.742439-98.52878c37.338537-25.225366 59.441951-72.029659 48.702439-122.929951-9.240976-43.657366-44.056976-78.922927-87.164878-88.088976A115.562146 115.562146 0 0 0 524.487805 24.97561v824.195122h408.17639v-0.224781l69.632-499.512195a78.798049 78.798049 0 0 0 45.45561-59.117268c8.691512-49.276878-29.421268-95.85639-81.870049-93.159025z" fill="#FFB103" /><path d="M899.121951 299.707317a74.926829 74.926829 0 1 0 149.853659 0 74.926829 74.926829 0 0 0-149.853659 0zM399.609756 149.853659a124.878049 124.878049 0 1 0 249.756098 0 124.878049 124.878049 0 0 0-249.756098 0z" fill="#F9C85D" /><path d="M524.487805 899.121951v124.878049h283.947707C872.348098 1024 924.097561 969.453268 924.097561 902.069073V899.121951H524.487805z" fill="#429BCF" /><path d="M130.797268 229.550829c-9.265951 52.44878-48.952195 97.90439-105.821658 126.12683 13.436878 11.738537 30.295415 18.956488 48.852292 18.956487 43.532488 0 78.848-38.462439 78.848-85.916097 0-22.902634-8.441756-43.707317-21.878634-59.16722z m896.624391 0.699317c-10.764488 51.724488-51.100098 96.156098-108.069464 123.579317 13.761561 12.787512 31.369366 20.804683 50.900293 20.804683C1013.76 374.634146 1048.97561 336.27161 1048.97561 288.842927a90.012098 90.012098 0 0 0-21.553951-58.592781zM603.086049 49.95122c2.422634 7.667512 3.821268 15.684683 3.821268 23.826731 0 59.766634-68.38322 108.244293-152.650927 108.244293-15.260098 0-29.970732-1.64839-43.85717-4.670439 14.410927 52.323902 58.892488 90.33678 111.591024 90.33678 64.312195 0 116.486244-56.844488 116.486244-126.951024-0.099902-35.565268-13.661659-67.758829-35.415415-90.786341z" fill="#FFB103" /><path d="M25.325268 247.358439c1.073951 2.622439 4.345756 3.146927 8.641561 1.323707 4.270829-1.798244 8.891317-5.644488 12.113171-10.06517 3.246829-4.445659 4.570537-8.791415 3.496585-11.43883-1.048976-2.622439-4.32078-3.146927-8.616585-1.323707a31.169561 31.169561 0 0 0-12.113171 10.065171c-3.246829 4.445659-4.570537 8.791415-3.496585 11.438829zM958.613854 244.636098c4.32078 3.596488 8.891317 5.51961 11.988292 5.045073 3.072-0.499512 4.195902-3.29678 2.947122-7.367805-1.24878-4.071024-4.695415-8.81639-9.04117-12.412878-4.32078-3.596488-8.891317-5.51961-11.988293-5.045073-3.072 0.499512-4.195902 3.29678-2.947122 7.367805 1.24878 4.071024 4.695415 8.81639 9.041171 12.412878zM499.512195 62.439024c0 6.893268 22.353171 12.487805 49.95122 12.487805s49.95122-5.594537 49.951219-12.487805-22.353171-12.487805-49.951219-12.487804-49.95122 5.594537-49.95122 12.487804z" fill="#F7EAD0" /><path d="M571.192195 649.365854h-68.433171c-15.509854 0-28.222439-16.883512-28.222439-37.463415s12.712585-37.463415 28.222439-37.463415h68.433171c15.509854 0 28.222439 16.883512 28.222439 37.463415s-12.712585 37.463415-28.222439 37.463415z" fill="#DA3329" /><path d="M552.760195 574.439024H524.487805v74.92683h28.27239c11.913366 0 21.678829-16.858537 21.678829-37.388488 0-20.679805-9.765463-37.538341-21.678829-37.538342z" fill="#C11B16" /></svg>