<?xml version="1.0" standalone="no"?><!DOCTYPE svg PUBLIC "-//W3C//DTD SVG 1.1//EN" "http://www.w3.org/Graphics/SVG/1.1/DTD/svg11.dtd"><svg class="icon" width="64px" height="64.00px" viewBox="0 0 1024 1024" version="1.1" xmlns="http://www.w3.org/2000/svg"><path d="M273.066667 438.044444L193.422222 358.4c-22.755556-28.444444-22.755556-68.266667 0-96.711111l68.266667-68.266667c28.444444-22.755556 68.266667-22.755556 91.022222 0l79.644445 79.644445c22.755556 17.066667 28.444444 45.511111 22.755555 68.266666l73.955556 73.955556c51.2-51.2 51.2-130.844444 0-182.044445L398.222222 102.4c-51.2-51.2-130.844444-51.2-182.044444 0l-113.777778 113.777778c-51.2 51.2-51.2 130.844444 0 182.044444L227.555556 529.066667c51.2 51.2 130.844444 51.2 182.044444 0L341.333333 455.111111c-22.755556 5.688889-51.2 0-68.266666-17.066667z m648.533333 176.355556L796.444444 489.244444c-51.2-51.2-136.533333-51.2-187.733333 0L682.666667 563.2c22.755556-5.688889 51.2 0 68.266666 17.066667l73.955556 73.955555c28.444444 28.444444 28.444444 68.266667 0 96.711111l-68.266667 68.266667c-28.444444 28.444444-68.266667 28.444444-91.022222 0l-73.955556-73.955556c-22.755556-11.377778-34.133333-39.822222-22.755555-62.577777l-73.955556-73.955556c-51.2 51.2-51.2 136.533333 0 187.733333l125.155556 119.466667c51.2 51.2 136.533333 51.2 187.733333 0l113.777778-119.466667c51.2-45.511111 51.2-130.844444 0-182.044444zM375.466667 369.777778c-17.066667 17.066667-17.066667 45.511111 0 62.577778l210.488889 210.488888c17.066667 17.066667 45.511111 17.066667 62.577777 0 17.066667-17.066667 17.066667-45.511111 0-62.577777L438.044444 369.777778c-17.066667-17.066667-45.511111-17.066667-62.577777 0z" fill="#318FF3" /></svg>