<?xml version="1.0" standalone="no"?><!DOCTYPE svg PUBLIC "-//W3C//DTD SVG 1.1//EN" "http://www.w3.org/Graphics/SVG/1.1/DTD/svg11.dtd"><svg class="icon" width="64px" height="64.00px" viewBox="0 0 1024 1024" version="1.1" xmlns="http://www.w3.org/2000/svg"><path d="M856.703 844.812V680.195c0-20.61-10.277-41.221-41.167-41.221H650.923c-30.867 0-41.17 20.665-41.17 41.221v164.617c0 20.559 10.303 41.169 41.17 41.169h164.613c30.89 0 41.167-20.666 41.167-41.169z m-35.275-276.288c70.532 0 105.837 63.469 105.837 105.84v176.282c0 52.946-35.305 105.837-105.837 105.837H645.086c-70.56 0-105.837-52.891-105.837-105.837V674.364c0-52.948 35.277-105.84 105.837-105.84h176.342z m-404.482-229.12V174.841c0-20.61-10.223-41.167-41.112-41.167H211.188c-30.807 0-41.112 20.557-41.112 41.167v164.563c0 20.611 10.251 41.167 41.112 41.167h164.646c30.805 0 41.112-20.556 41.112-41.167zM381.72 63.116c70.503 0 105.809 63.469 105.809 105.78v176.449c0 52.835-35.306 105.783-105.863 105.783H205.3c-70.477 0-105.783-52.948-105.783-105.892v-176.34c0-52.835 35.278-105.78 105.783-105.78h176.42z m0 439.703c70.503 0 105.784 63.526 105.784 105.893v176.282c0 52.948-35.28 105.838-105.837 105.838H205.3c-70.505 0-105.783-52.89-105.783-105.838V608.712c0-52.944 35.278-105.893 105.783-105.893h176.42z m439.677-374.051c70.562 0 105.838 63.465 105.838 105.78v176.395c0 52.89-35.275 105.784-105.838 105.784H645.086c-70.56 0-105.837-52.895-105.837-105.838V234.548c0-52.89 35.277-105.78 105.837-105.78h176.311z" fill="#318FF3" /></svg>