<?xml version="1.0" standalone="no"?><!DOCTYPE svg PUBLIC "-//W3C//DTD SVG 1.1//EN" "http://www.w3.org/Graphics/SVG/1.1/DTD/svg11.dtd"><svg class="icon" width="64px" height="48.83px" viewBox="0 0 1342 1024" version="1.1" xmlns="http://www.w3.org/2000/svg"><path d="M1216.357099 139.030378c-10.157471-11.427154-24.758834-17.775573-39.995041-18.410415l-432.962182-17.140732-32.376937 73.00682 45.073775 135.856168-81.259764 154.266584 33.011779 124.429015 82.529448 106.653441 119.350279-109.827651c11.427154-10.792312 29.83757-10.157471 39.995041 1.904526l152.9969 165.693738c10.792312 11.427154 10.157471 29.83757-1.269684 40.629882-5.713577 5.078735-12.696838 8.252945-20.314941 7.618103l-419.630502-16.505889-20.949783 60.309981 22.854308 53.961562 482.479852 18.410416c31.742095 1.269684 58.405456-23.489151 59.040297-55.231246L1231.593304 180.295102c0.634842-15.236206-4.443893-30.472412-15.236205-41.264724z m-309.802852 314.246745c-47.613143-1.904526-84.433974-41.899566-82.529448-88.877867 1.904526-47.613143 41.899566-84.433974 88.877867-82.529448 46.978301 1.904526 84.433974 41.899566 82.529448 88.877867-1.904526 46.978301-41.899566 84.433974-88.877867 82.529448z m-311.072536 394.871668l14.601364-63.484191-340.910105 23.489151c-15.871048 1.269684-29.202728-10.157471-30.472412-26.028519-0.634842-7.618103 1.904526-15.236206 6.983261-20.949783l252.66708-290.122752c5.078735-6.348419 12.696838-9.522629 20.949783-9.522629 7.618103 0 15.236206 3.17421 20.949783 8.887787L624.684439 558.66088l-36.185989-93.956602 64.753875-162.519529-59.040298-130.142592 24.123993-74.911345-464.704278 32.376938c-31.742095 1.904526-55.231246 29.202728-53.32672 60.944823l46.978301 684.359578c0.634842 15.236206 7.618103 29.202728 19.680099 38.725357 11.427154 10.157471 26.028518 15.236206 41.264724 13.966522l415.186609-28.567886-27.933044-50.787353z" fill="#BEBFBF" /></svg>