<?xml version="1.0" standalone="no"?><!DOCTYPE svg PUBLIC "-//W3C//DTD SVG 1.1//EN" "http://www.w3.org/Graphics/SVG/1.1/DTD/svg11.dtd"><svg class="icon" width="64px" height="64.00px" viewBox="0 0 1024 1024" version="1.1" xmlns="http://www.w3.org/2000/svg"><path d="M925.582222 879.502222c-22.186667 22.186667-58.026667 22.186667-80.213333 0-9.671111 9.102222-18.773333 18.773333-27.875556 27.875556-13.084444 13.084444-26.737778 25.031111-40.96 36.408889h-561.493333c-14.222222-11.377778-27.875556-23.324444-40.96-36.408889-124.017778-124.017778-161.564444-302.08-112.64-458.524445l-44.373333-44.373333c-22.186667-22.186667-22.186667-58.026667 0-80.213333s58.026667-22.186667 80.213333 0l27.875556 27.875555c13.084444 13.084444 34.702222 13.084444 48.355555 0 13.084444-13.084444 13.084444-34.702222 0-48.355555l-52.337778-52.337778c-13.084444-13.084444-13.084444-34.702222 0-48.355556s34.702222-13.084444 48.355556 0l72.248889 72.248889c13.084444 13.084444 34.702222 13.084444 48.355555 0 13.084444-13.084444 13.084444-34.702222 0-48.355555l-31.288889-31.288889c175.217778-106.382222 406.755556-84.195556 558.08 67.128889 99.555556 99.555556 143.36 234.382222 131.413334 364.657777l64.853333 65.991112c13.084444 13.084444 13.084444 34.702222 0 48.355555s-34.702222 13.084444-48.355555 0l-63.715556-64.284444c-13.084444-13.084444-34.702222-13.084444-48.355556 0-13.084444 13.084444-13.084444 34.702222 0 48.355555l72.248889 72.248889c22.755556 23.324444 22.755556 59.164444 0.568889 81.351111z" fill="#EAF0F7" /><path d="M81.92 164.977778m-34.133333 0a34.133333 34.133333 0 1 0 68.266666 0 34.133333 34.133333 0 1 0-68.266666 0Z" fill="#EAF0F7" /><path d="M96.711111 938.666667h728.177778c3.413333 0 5.688889 2.275556 5.688889 5.688889s-2.275556 5.688889-5.688889 5.688888h-728.177778c-3.413333 0-5.688889-2.275556-5.688889-5.688888s2.275556-5.688889 5.688889-5.688889zM881.777778 938.666667h34.133333c3.413333 0 5.688889 2.275556 5.688889 5.688889s-2.275556 5.688889-5.688889 5.688888h-34.133333c-3.413333 0-5.688889-2.275556-5.688889-5.688888s2.275556-5.688889 5.688889-5.688889zM512 972.8h34.133333c3.413333 0 5.688889 2.275556 5.688889 5.688889s-2.275556 5.688889-5.688889 5.688889h-34.133333c-3.413333 0-5.688889-2.275556-5.688889-5.688889s2.275556-5.688889 5.688889-5.688889zM73.955556 1012.622222h147.911111c3.413333 0 5.688889 2.275556 5.688889 5.688889s-2.275556 5.688889-5.688889 5.688889h-147.911111c-3.413333 0-5.688889-2.275556-5.688889-5.688889s2.275556-5.688889 5.688889-5.688889zM347.022222 1012.622222h557.511111c3.413333 0 5.688889 2.275556 5.688889 5.688889s-2.275556 5.688889-5.688889 5.688889h-557.511111c-3.413333 0-5.688889-2.275556-5.688889-5.688889s2.275556-5.688889 5.688889-5.688889zM603.022222 972.8h147.911111c3.413333 0 5.688889 2.275556 5.688889 5.688889s-2.275556 5.688889-5.688889 5.688889h-147.911111c-3.413333 0-5.688889-2.275556-5.688889-5.688889s2.275556-5.688889 5.688889-5.688889zM210.488889 972.8h256c3.413333 0 5.688889 2.275556 5.688889 5.688889s-2.275556 5.688889-5.688889 5.688889h-256c-3.413333 0-5.688889-2.275556-5.688889-5.688889s2.275556-5.688889 5.688889-5.688889zM659.911111 56.888889c12.515556 0 22.755556-10.24 22.755556-22.755556s-10.24-22.755556-22.755556-22.755555-22.755556 10.24-22.755555 22.755555 10.24 22.755556 22.755555 22.755556z m0 11.377778c-18.773333 0-34.133333-15.36-34.133333-34.133334s15.36-34.133333 34.133333-34.133333 34.133333 15.36 34.133333 34.133333-15.36 34.133333-34.133333 34.133334zM796.444444 529.066667c12.515556 0 22.755556-10.24 22.755556-22.755556s-10.24-22.755556-22.755556-22.755555-22.755556 10.24-22.755555 22.755555 10.24 22.755556 22.755555 22.755556z m0 11.377777c-18.773333 0-34.133333-15.36-34.133333-34.133333s15.36-34.133333 34.133333-34.133333 34.133333 15.36 34.133334 34.133333-15.36 34.133333-34.133334 34.133333zM551.822222 261.688889c12.515556 0 22.755556-10.24 22.755556-22.755556s-10.24-22.755556-22.755556-22.755555-22.755556 10.24-22.755555 22.755555 10.24 22.755556 22.755555 22.755556z m0 11.377778c-18.773333 0-34.133333-15.36-34.133333-34.133334s15.36-34.133333 34.133333-34.133333 34.133333 15.36 34.133334 34.133333-15.36 34.133333-34.133334 34.133334zM238.933333 443.733333c12.515556 0 22.755556-10.24 22.755556-22.755555s-10.24-22.755556-22.755556-22.755556-22.755556 10.24-22.755555 22.755556 10.24 22.755556 22.755555 22.755555z m0 11.377778c-18.773333 0-34.133333-15.36-34.133333-34.133333s15.36-34.133333 34.133333-34.133334 34.133333 15.36 34.133334 34.133334-15.36 34.133333-34.133334 34.133333zM813.511111 147.911111h34.133333c3.413333 0 5.688889 2.275556 5.688889 5.688889s-2.275556 5.688889-5.688889 5.688889h-34.133333c-3.413333 0-5.688889-2.275556-5.688889-5.688889s2.275556-5.688889 5.688889-5.688889z" fill="#CADAEC" /><path d="M836.266667 136.533333v34.133334c0 3.413333-2.275556 5.688889-5.688889 5.688889s-5.688889-2.275556-5.688889-5.688889v-34.133334c0-3.413333 2.275556-5.688889 5.688889-5.688889s5.688889 2.275556 5.688889 5.688889zM375.466667 62.577778h34.133333c3.413333 0 5.688889 2.275556 5.688889 5.688889s-2.275556 5.688889-5.688889 5.688889h-34.133333c-3.413333 0-5.688889-2.275556-5.688889-5.688889s2.275556-5.688889 5.688889-5.688889z" fill="#CADAEC" /><path d="M398.222222 51.2v34.133333c0 3.413333-2.275556 5.688889-5.688889 5.688889s-5.688889-2.275556-5.688889-5.688889v-34.133333c0-3.413333 2.275556-5.688889 5.688889-5.688889s5.688889 2.275556 5.688889 5.688889zM125.155556 614.4h34.133333c3.413333 0 5.688889 2.275556 5.688889 5.688889s-2.275556 5.688889-5.688889 5.688889h-34.133333c-3.413333 0-5.688889-2.275556-5.688889-5.688889s2.275556-5.688889 5.688889-5.688889z" fill="#CADAEC" /><path d="M147.911111 603.022222v34.133334c0 3.413333-2.275556 5.688889-5.688889 5.688888s-5.688889-2.275556-5.688889-5.688888v-34.133334c0-3.413333 2.275556-5.688889 5.688889-5.688889s5.688889 2.275556 5.688889 5.688889zM722.488889 318.577778h34.133333c3.413333 0 5.688889 2.275556 5.688889 5.688889s-2.275556 5.688889-5.688889 5.688889h-34.133333c-3.413333 0-5.688889-2.275556-5.688889-5.688889s2.275556-5.688889 5.688889-5.688889z" fill="#CADAEC" /><path d="M745.244444 307.2v34.133333c0 3.413333-2.275556 5.688889-5.688888 5.688889s-5.688889-2.275556-5.688889-5.688889v-34.133333c0-3.413333 2.275556-5.688889 5.688889-5.688889s5.688889 2.275556 5.688888 5.688889z" fill="#CCDBEC" /><path d="M386.844444 483.555556m-5.688888 0a5.688889 5.688889 0 1 0 11.377777 0 5.688889 5.688889 0 1 0-11.377777 0Z" fill="#CADAEC" /><path d="M517.688889 591.644444l166.115555 79.075556c9.671111 4.551111 15.928889 14.791111 15.928889 25.6V819.2h-364.088889v-122.88c0-10.808889 6.257778-21.048889 15.928889-25.6L517.688889 591.644444z" fill="#FFFFFF" /><path d="M517.688889 603.022222l166.115555-79.075555c9.671111-4.551111 15.928889-14.791111 15.928889-25.6V375.466667h-364.088889v122.88c0 10.808889 6.257778 21.048889 15.928889 25.6L517.688889 603.022222z" fill="#FFFFFF" /><path d="M356.693333 680.96c-5.688889 2.844444-9.671111 9.102222-9.671111 15.36V807.822222h341.333334v-111.502222c0-6.826667-3.982222-12.515556-9.671112-15.36l-160.995555-76.8-160.995556 76.8zM517.688889 591.644444l166.115555 79.075556c9.671111 4.551111 15.928889 14.791111 15.928889 25.6V819.2h-364.088889v-122.88c0-10.808889 6.257778-21.048889 15.928889-25.6L517.688889 591.644444z" fill="#6C7C9D" /><path d="M356.693333 513.706667c-5.688889-2.844444-9.671111-9.102222-9.671111-15.36V386.844444h341.333334v111.502223c0 6.826667-3.982222 12.515556-9.671112 15.36l-160.995555 76.8-160.995556-76.8zM517.688889 603.022222l166.115555-79.075555c9.671111-4.551111 15.928889-14.791111 15.928889-25.6V375.466667h-364.088889v122.88c0 10.808889 6.257778 21.048889 15.928889 25.6L517.688889 603.022222z" fill="#6C7C9D" /><path d="M517.688889 574.577778l132.551111-63.715556h-265.102222zM341.333333 830.577778h364.088889v28.444444h-364.088889zM341.333333 347.022222h364.088889v28.444445h-364.088889zM358.4 728.177778h318.577778v68.266666h-318.577778z" fill="#CADAEC" /><path d="M347.022222 386.844444h341.333334v17.066667h-341.333334zM356.693333 679.822222L517.688889 603.022222l16.497778 8.533334-187.164445 89.315555v-6.257778c0-6.257778 3.982222-11.946667 9.671111-14.791111z" fill="#EAF0F7" /><path d="M347.022222 386.844444h17.066667v130.275556l-7.395556-3.413333c-6.257778-2.844444-9.671111-9.102222-9.671111-15.36V386.844444zM347.022222 807.253333h17.066667V676.977778l-7.395556 3.413333c-6.257778 2.844444-9.671111 9.102222-9.671111 15.36v111.502222z" fill="#EAF0F7" /><path d="M329.955556 375.466667h375.466666v-39.822223h-375.466666v39.822223z m-7.964445 7.964444c-2.275556-2.275556-3.413333-5.12-3.413333-7.964444v-39.822223c0-3.413333 1.137778-6.257778 3.413333-7.964444s5.12-3.413333 7.964445-3.413333h375.466666c3.413333 0 6.257778 1.137778 7.964445 3.413333s3.413333 5.12 3.413333 7.964444v39.822223c0 3.413333-1.137778 6.257778-3.413333 7.964444s-5.12 3.413333-7.964445 3.413333h-375.466666c-3.413333 0-6.257778-1.137778-7.964445-3.413333zM329.955556 859.022222h375.466666v-39.822222h-375.466666v39.822222z m-7.964445 7.964445c-2.275556-2.275556-3.413333-5.12-3.413333-7.964445v-39.822222c0-3.413333 1.137778-6.257778 3.413333-7.964444 2.275556-2.275556 5.12-3.413333 7.964445-3.413334h375.466666c3.413333 0 6.257778 1.137778 7.964445 3.413334 2.275556 2.275556 3.413333 5.12 3.413333 7.964444v39.822222c0 3.413333-1.137778 6.257778-3.413333 7.964445-2.275556 2.275556-5.12 3.413333-7.964445 3.413333h-375.466666c-3.413333 0-6.257778-1.137778-7.964445-3.413333z" fill="#6C7C9D" /></svg>